<?xml version="1.0" encoding="utf-8"?><svg xmlns="http://www.w3.org/2000/svg" xmlns:xlink="http://www.w3.org/1999/xlink" width="1153" height="920" preserveAspectRatio="xMidYMid" viewBox="0 0 1153 920" style="z-index:1;margin-right:-2px;display:block;background-repeat-y:initial;background-repeat-x:initial;background-color:rgb(241, 242, 243);animation-play-state:paused" ><g transform="translate(576.5,460) scale(1,1) translate(-576.5,-460)" style="transform:matrix(1, 0, 0, 1, 0, 0);animation-play-state:paused" ><linearGradient id="lg-0.5921999115649683" x1="0" x2="1" y1="0" y2="0" style="animation-play-state:paused" ><stop stop-color="#d63635" offset="0" style="animation-play-state:paused" ></stop>

  
<stop stop-color="#dee5ec" offset="1" style="animation-play-state:paused" ></stop></linearGradient>
<path d="M 0 0 M 0 801.289 Q 115.3 856.835 230.6 847.153 T 461.2 774.891 T 691.8 734.984 T 922.4 661.16 T 1153 646.128 L 1153 261.34 Q 1037.7 189.462 922.4 182.146 T 691.8 200.859 T 461.2 158.251 T 230.6 81.537 T 0 92.0386 Z" fill="url(#lg-0.5921999115649683)" opacity="0.4" style="opacity:0.4;animation-play-state:paused" ></path>
<path d="M 0 0 M 0 859.625 Q 115.3 832.018 230.6 825.213 T 461.2 735.145 T 691.8 700.763 T 922.4 691.662 T 1153 628.639 L 1153 277.007 Q 1037.7 207.885 922.4 201.289 T 691.8 192.388 T 461.2 143.068 T 230.6 93.7131 T 0 69.7383 Z" fill="url(#lg-0.5921999115649683)" opacity="0.4" style="opacity:0.4;animation-play-state:paused" ></path>
<path d="M 0 0 M 0 811.977 Q 115.3 746.259 230.6 741.818 T 461.2 772.205 T 691.8 722.806 T 922.4 726.197 T 1153 682.262 L 1153 227.361 Q 1037.7 180.785 922.4 175.831 T 691.8 201.634 T 461.2 178.33 T 230.6 166.658 T 0 97.3268 Z" fill="url(#lg-0.5921999115649683)" opacity="0.4" style="opacity:0.4;animation-play-state:paused" ></path>
<path d="M 0 0 M 0 828.23 Q 115.3 831.09 230.6 825.266 T 461.2 801.62 T 691.8 751.948 T 922.4 723.088 T 1153 660.998 L 1153 290.744 Q 1037.7 249.481 922.4 247.141 T 691.8 213.27 T 461.2 166.356 T 230.6 136.097 T 0 76.8957 Z" fill="url(#lg-0.5921999115649683)" opacity="0.4" style="opacity:0.4;animation-play-state:paused" ></path></g></svg>